<svg width="493" height="183" viewBox="0 0 493 183" fill="none" xmlns="http://www.w3.org/2000/svg">
<g filter="url(#filter0_d_1_4606)">
<path d="M107.685 99.4679C93.9147 114.178 68.3547 138.598 68.3547 138.598C68.3547 138.598 59.9547 98.6579 51.2247 70.0979C50.8946 69.0279 50.7847 67.9279 50.4947 66.8479C44.8747 46.1379 30.5147 41.7879 22.3647 45.6979C14.0747 49.6679 2.75465 62.8379 17.6547 82.5079C17.4747 82.3079 17.8147 82.7179 17.6547 82.5079L68.3647 138.598C70.8447 129.788 75.8346 101.548 78.2747 94.1879C78.8746 92.2779 79.7747 88.9379 83.4247 83.9379C90.9547 73.6179 100.035 70.4079 106.735 74.6979C113.435 78.9879 115.235 89.1479 107.705 99.4679C105.735 102.168 99.8247 107.538 97.4647 109.428" fill="#93CC5A"/>
</g>
<g filter="url(#filter1_d_1_4606)">
<path d="M151.349 108.52V90.685H171.939C176.096 90.685 179.576 89.8633 182.379 88.22C185.279 86.5767 187.454 84.305 188.904 81.405C190.451 78.505 191.224 75.17 191.224 71.4C191.224 67.63 190.451 64.295 188.904 61.395C187.454 58.495 185.279 56.2717 182.379 54.725C179.576 53.0817 176.096 52.26 171.939 52.26H151.349V34.425H170.199C179.093 34.425 186.633 35.875 192.819 38.775C199.103 41.675 203.888 45.8317 207.174 51.245C210.461 56.5617 212.104 62.8933 212.104 70.24V72.56C212.104 79.9067 210.461 86.2867 207.174 91.7C203.888 97.0167 199.103 101.173 192.819 104.17C186.633 107.07 179.093 108.52 170.199 108.52H151.349ZM133.659 141V34.425H154.249V141H133.659ZM254.329 143.465C245.242 143.465 238.185 140.468 233.159 134.475C228.229 128.482 225.764 119.588 225.764 107.795V62.12H245.919V109.535C245.919 114.368 247.272 118.235 249.979 121.135C252.685 123.938 256.359 125.34 260.999 125.34C265.639 125.34 269.409 123.842 272.309 120.845C275.305 117.848 276.804 113.788 276.804 108.665V62.12H296.959V141H281.009V107.505H282.604C282.604 115.432 281.589 122.053 279.559 127.37C277.529 132.687 274.484 136.698 270.424 139.405C266.364 142.112 261.289 143.465 255.199 143.465H254.329ZM348.676 143.465C337.85 143.465 329.343 141.193 323.156 136.65C317.066 132.01 313.876 125.63 313.586 117.51H331.711C332.001 120.217 333.5 122.682 336.206 124.905C338.913 127.128 343.166 128.24 348.966 128.24C353.8 128.24 357.618 127.37 360.421 125.63C363.321 123.89 364.771 121.522 364.771 118.525C364.771 115.915 363.66 113.837 361.436 112.29C359.31 110.743 355.636 109.728 350.416 109.245L343.456 108.52C334.66 107.553 327.893 105.04 323.156 100.98C318.42 96.92 316.051 91.5067 316.051 84.74C316.051 79.3267 317.405 74.7833 320.111 71.11C322.818 67.4367 326.54 64.6817 331.276 62.845C336.11 60.9117 341.62 59.945 347.806 59.945C357.473 59.945 365.303 62.0717 371.296 66.325C377.29 70.5783 380.431 76.8133 380.721 85.03H362.596C362.403 82.3233 361.05 80.0033 358.536 78.07C356.023 76.1367 352.398 75.17 347.661 75.17C343.408 75.17 340.121 75.9917 337.801 77.635C335.481 79.2783 334.321 81.405 334.321 84.015C334.321 86.5283 335.24 88.4617 337.076 89.815C339.01 91.1683 342.103 92.0867 346.356 92.57L353.316 93.295C362.596 94.2617 369.846 96.8233 375.066 100.98C380.383 105.137 383.041 110.743 383.041 117.8C383.041 123.02 381.591 127.563 378.691 131.43C375.888 135.2 371.925 138.148 366.801 140.275C361.678 142.402 355.636 143.465 348.676 143.465ZM399.691 141V35.15H419.846V96.92H416.366C416.366 88.9933 417.381 82.275 419.411 76.765C421.441 71.255 424.438 67.05 428.401 64.15C432.461 61.25 437.585 59.8 443.771 59.8H444.641C453.631 59.8 460.446 62.8933 465.086 69.08C469.726 75.2667 472.046 84.2567 472.046 96.05V141H451.891V94.165C451.891 89.1383 450.441 85.175 447.541 82.275C444.738 79.375 441.016 77.925 436.376 77.925C431.446 77.925 427.435 79.5683 424.341 82.855C421.345 86.045 419.846 90.25 419.846 95.47V141H399.691Z" fill="#865DE5"/>
</g>
<defs>
<filter id="filter0_d_1_4606" x="6.39062" y="44.4019" width="110.215" height="102.196" filterUnits="userSpaceOnUse" color-interpolation-filters="sRGB">
<feFlood flood-opacity="0" result="BackgroundImageFix"/>
<feColorMatrix in="SourceAlpha" type="matrix" values="0 0 0 0 0 0 0 0 0 0 0 0 0 0 0 0 0 0 127 0" result="hardAlpha"/>
<feOffset dy="4"/>
<feGaussianBlur stdDeviation="2"/>
<feComposite in2="hardAlpha" operator="out"/>
<feColorMatrix type="matrix" values="0 0 0 0 0 0 0 0 0 0 0 0 0 0 0 0 0 0 0.2 0"/>
<feBlend mode="normal" in2="BackgroundImageFix" result="effect1_dropShadow_1_4606"/>
<feBlend mode="normal" in="SourceGraphic" in2="effect1_dropShadow_1_4606" result="shape"/>
</filter>
<filter id="filter1_d_1_4606" x="129.66" y="34.4248" width="346.387" height="117.04" filterUnits="userSpaceOnUse" color-interpolation-filters="sRGB">
<feFlood flood-opacity="0" result="BackgroundImageFix"/>
<feColorMatrix in="SourceAlpha" type="matrix" values="0 0 0 0 0 0 0 0 0 0 0 0 0 0 0 0 0 0 127 0" result="hardAlpha"/>
<feOffset dy="4"/>
<feGaussianBlur stdDeviation="2"/>
<feComposite in2="hardAlpha" operator="out"/>
<feColorMatrix type="matrix" values="0 0 0 0 0 0 0 0 0 0 0 0 0 0 0 0 0 0 0.2 0"/>
<feBlend mode="normal" in2="BackgroundImageFix" result="effect1_dropShadow_1_4606"/>
<feBlend mode="normal" in="SourceGraphic" in2="effect1_dropShadow_1_4606" result="shape"/>
</filter>
</defs>
</svg>
